<?xml version="1.0" standalone="no"?>
<!DOCTYPE svg PUBLIC "-//W3C//DTD SVG 20010904//EN"
 "http://www.w3.org/TR/2001/REC-SVG-20010904/DTD/svg10.dtd">
<svg version="1.0" xmlns="http://www.w3.org/2000/svg"
 width="2000.000000pt" height="970.000000pt" viewBox="0 0 2000.000000 970.000000"
 preserveAspectRatio="xMidYMid meet">

<g transform="translate(0.000000,970.000000) scale(0.100000,-0.100000)"
fill="#000000" stroke="none">
<path d="M14510 7735 l0 -765 145 0 145 0 0 765 0 765 -145 0 -145 0 0 -765z"/>
<path d="M1790 8400 c-242 -64 -415 -225 -495 -460 -47 -139 -51 -352 -9 -485
23 -71 88 -190 136 -247 55 -66 142 -132 230 -173 235 -111 503 -96 730 41
l57 35 -33 72 c-66 142 -98 207 -102 207 -2 0 -26 -16 -53 -35 -26 -19 -75
-47 -107 -62 -52 -24 -71 -27 -159 -28 -119 0 -181 18 -256 75 -113 85 -164
204 -157 369 3 89 7 105 41 174 48 96 109 160 194 199 130 61 276 46 414 -44
33 -21 65 -39 70 -41 5 -1 37 61 70 138 70 161 75 143 -56 206 -112 54 -181
70 -320 75 -98 3 -134 1 -195 -16z"/>
<path d="M12862 8047 c-62 -100 -108 -183 -102 -185 5 -2 -22 -19 -60 -38
-169 -85 -260 -250 -247 -452 12 -201 161 -366 362 -403 81 -15 207 -6 277 19
64 23 178 88 178 102 0 10 -116 198 -134 218 -10 10 -23 6 -65 -22 -80 -54
-159 -70 -210 -42 -26 14 -57 2 349 144 l165 58 11 -81 c21 -157 70 -248 174
-326 102 -77 279 -102 400 -58 93 34 90 33 90 10 0 -20 4 -21 145 -21 l145 0
0 440 0 440 -140 0 c-118 0 -140 -2 -140 -15 0 -19 2 -20 -64 11 -108 49 -255
43 -374 -17 -113 -56 -211 -192 -230 -319 l-8 -55 -27 85 c-44 143 -123 243
-234 299 -23 11 -50 21 -60 21 -10 0 -25 5 -33 10 -12 8 4 29 85 112 55 57
131 136 170 176 l69 72 -189 0 -190 -1 -113 -182z m120 -448 c10 -5 18 -13 18
-17 0 -8 -219 -92 -239 -92 -13 0 23 73 46 92 42 34 127 43 175 17z m947 1
c39 -11 86 -51 107 -92 8 -15 14 -53 14 -85 0 -120 -68 -193 -180 -193 -63 0
-104 20 -143 72 -45 59 -53 150 -19 213 12 24 59 68 87 83 25 14 89 15 134 2z"/>
<path d="M15030 8188 c-77 -53 -100 -134 -59 -208 31 -55 75 -81 138 -82 103
0 176 71 168 165 -8 87 -74 147 -162 147 -38 0 -61 -6 -85 -22z"/>
<path d="M2850 7869 c-126 -24 -263 -128 -320 -242 -138 -277 18 -603 315
-658 81 -15 207 -6 277 19 64 23 178 88 178 102 0 10 -116 198 -134 218 -10
10 -23 6 -65 -22 -80 -54 -159 -70 -210 -42 l-24 13 29 10 c16 6 135 47 264
93 129 45 239 86 244 90 14 14 -40 171 -82 236 -40 62 -101 118 -162 149 -76
39 -209 54 -310 34z m162 -270 c10 -5 18 -13 18 -17 0 -8 -219 -92 -239 -92
-13 0 23 73 46 92 42 34 127 43 175 17z"/>
<path d="M4323 7865 c-193 -54 -313 -196 -336 -397 -14 -119 30 -279 99 -361
78 -94 199 -147 333 -147 67 0 164 19 224 45 16 7 17 -6 17 -189 l0 -196 150
0 150 0 0 620 0 620 -150 0 c-127 0 -150 -2 -150 -15 0 -18 5 -19 -60 6 -72
28 -205 35 -277 14z m251 -288 c119 -66 112 -273 -11 -332 -24 -12 -59 -19
-96 -19 -47 1 -65 6 -99 30 -53 38 -81 91 -81 157 0 155 150 240 287 164z"/>
<path d="M6415 7870 c-312 -64 -469 -382 -330 -667 76 -154 231 -243 425 -243
89 0 160 19 250 66 114 60 111 47 34 171 -37 59 -71 112 -75 117 -4 5 -35 -10
-68 -32 -72 -48 -145 -62 -200 -40 l-34 14 254 88 c140 49 264 93 276 97 l22
8 -20 71 c-27 98 -59 157 -120 224 -100 109 -258 157 -414 126z m156 -271 c11
-5 19 -13 19 -17 0 -9 -239 -96 -246 -89 -8 7 20 59 43 79 49 45 130 57 184
27z"/>
<path d="M8010 7865 c-30 -9 -70 -25 -88 -35 -41 -25 -42 -25 -42 0 0 19 -7
20 -140 20 l-140 0 2 -437 3 -438 148 -3 147 -3 0 226 c0 266 6 300 65 361 37
40 46 44 88 44 34 0 53 -6 67 -20 19 -19 20 -33 20 -315 l0 -295 150 0 150 0
0 328 c0 264 -3 338 -15 379 -20 68 -88 143 -157 173 -68 30 -181 36 -258 15z"/>
<path d="M8901 7870 c-76 -16 -169 -67 -230 -125 -221 -210 -166 -598 103
-730 257 -126 550 -36 665 204 35 75 36 78 36 201 0 119 -1 128 -31 190 -82
171 -216 258 -409 265 -49 2 -110 0 -134 -5z m177 -274 c126 -66 138 -265 21
-343 -52 -34 -140 -30 -192 10 -100 76 -92 250 15 320 48 31 112 36 156 13z"/>
<path d="M10765 7866 c-102 -25 -162 -71 -207 -156 -18 -36 -23 -60 -23 -125
0 -94 20 -140 84 -198 50 -45 77 -59 178 -92 94 -30 118 -49 88 -71 -42 -31
-118 -10 -199 54 -30 24 -57 44 -61 44 -4 -1 -38 -42 -76 -93 l-68 -92 20 -28
c57 -80 175 -137 304 -146 175 -12 302 50 359 178 54 118 33 246 -52 320 -41
36 -136 82 -205 100 -25 6 -53 19 -63 30 -16 17 -15 19 10 30 39 18 100 -4
155 -56 l46 -44 72 111 72 111 -42 34 c-109 87 -261 121 -392 89z"/>
<path d="M12327 7869 c-42 -10 -133 -54 -159 -77 -16 -14 -18 -13 -18 6 0 51
-3 52 -146 52 l-134 0 0 -440 0 -441 148 3 147 3 5 235 c5 251 9 268 62 316
42 39 84 54 151 54 l64 0 6 98 c4 53 7 121 7 150 l0 52 -47 -1 c-27 -1 -65 -5
-86 -10z"/>
<path d="M15635 7870 c-69 -14 -129 -46 -167 -88 -63 -70 -73 -97 -73 -197 0
-80 3 -95 27 -136 43 -73 95 -107 233 -154 66 -22 91 -35 93 -49 5 -24 -14
-36 -56 -36 -47 0 -98 24 -158 75 l-52 45 -71 -95 c-39 -52 -71 -98 -71 -103
0 -5 23 -30 50 -56 89 -83 205 -122 340 -113 197 12 320 132 320 311 0 130
-86 225 -252 276 -93 28 -116 43 -98 65 27 33 120 4 174 -54 17 -17 33 -31 36
-31 7 0 106 144 129 188 16 31 -2 51 -88 100 -95 52 -214 72 -316 52z"/>
<path d="M16461 7870 c-76 -16 -169 -67 -230 -125 -221 -210 -166 -598 103
-730 257 -126 550 -36 665 204 35 75 36 78 36 201 0 119 -1 128 -31 190 -82
171 -216 258 -409 265 -49 2 -110 0 -134 -5z m177 -274 c126 -66 138 -265 21
-343 -52 -34 -140 -30 -192 10 -100 76 -92 250 15 320 48 31 112 36 156 13z"/>
<path d="M17557 7869 c-20 -5 -60 -20 -87 -34 -48 -25 -50 -25 -50 -5 0 19 -6
20 -140 20 l-140 0 0 -440 0 -441 148 3 147 3 5 255 c5 247 6 256 29 294 31
49 75 76 127 76 74 0 73 3 76 -331 l3 -294 148 -3 148 -3 -3 353 -3 353 -25
49 c-31 61 -104 120 -172 141 -56 16 -151 18 -211 4z"/>
<path d="M18345 7870 c-69 -14 -129 -46 -167 -88 -63 -70 -73 -97 -73 -197 0
-80 3 -95 27 -136 43 -73 95 -107 233 -154 66 -22 91 -35 93 -49 5 -24 -14
-36 -56 -36 -47 0 -98 24 -158 75 l-52 45 -71 -95 c-39 -52 -71 -98 -71 -103
0 -5 23 -30 50 -56 89 -83 205 -122 340 -113 197 12 320 132 320 311 0 130
-86 225 -252 276 -93 28 -116 43 -98 65 27 33 120 4 174 -54 17 -17 33 -31 36
-31 7 0 106 144 129 188 16 31 -2 51 -88 100 -95 52 -214 72 -316 52z"/>
<path d="M5112 7513 l3 -338 26 -55 c30 -64 74 -112 133 -143 35 -19 57 -22
146 -22 108 0 110 0 233 63 4 2 7 -8 7 -22 l0 -27 138 3 137 3 3 438 2 437
-150 0 -150 0 0 -214 c0 -128 -5 -235 -12 -265 -13 -59 -58 -118 -104 -137
-46 -19 -61 -18 -89 11 l-25 24 0 291 0 290 -151 0 -150 0 3 -337z"/>
<path d="M9580 7527 c0 -359 4 -392 63 -468 17 -23 57 -56 87 -73 52 -29 61
-31 160 -31 98 0 110 2 168 31 l62 31 6 -24 c6 -23 8 -23 140 -23 l134 0 0
440 0 440 -144 0 -144 0 -4 -237 c-3 -198 -7 -245 -22 -278 -22 -51 -52 -84
-93 -101 -45 -19 -70 -17 -93 6 -19 19 -20 33 -20 315 l0 295 -150 0 -150 0 0
-323z"/>
<path d="M14962 7413 l3 -438 148 -3 147 -3 0 441 0 440 -150 0 -150 0 2 -437z"/>
<path d="M9440 5774 l0 -175 -28 19 c-86 62 -202 44 -266 -41 -24 -33 -33
-130 -17 -180 24 -72 120 -126 196 -111 20 3 51 17 71 30 43 30 44 30 44 -1 0
-22 4 -25 35 -25 l35 0 0 330 0 330 -35 0 -35 0 0 -176z m-77 -188 c46 -19 69
-49 74 -99 9 -81 -42 -137 -126 -137 -51 0 -97 37 -111 90 -18 66 22 137 85
153 34 8 45 7 78 -7z"/>
<path d="M2998 5901 c-74 -24 -118 -83 -118 -159 0 -66 32 -101 147 -157 119
-59 130 -67 138 -106 23 -102 -101 -154 -228 -96 l-54 25 -18 -30 c-20 -35
-19 -37 63 -68 75 -28 175 -27 233 3 60 31 92 92 86 163 -5 79 -32 107 -156
167 -114 56 -140 82 -127 131 8 34 60 66 106 66 19 -1 59 -9 88 -19 l53 -18
15 29 15 29 -45 20 c-51 22 -157 33 -198 20z"/>
<path d="M3382 5798 c-28 -28 -3 -72 39 -66 30 4 47 33 33 56 -14 21 -55 27
-72 10z"/>
<path d="M5387 5803 c-13 -13 -7 -61 9 -67 47 -18 85 14 64 54 -10 20 -58 28
-73 13z"/>
<path d="M6230 5790 c-15 -27 4 -60 33 -60 29 0 47 18 47 46 0 37 -62 48 -80
14z"/>
<path d="M3628 5723 l-3 -78 -32 -3 c-29 -3 -33 -7 -33 -33 0 -27 3 -29 35
-29 l35 0 0 -145 0 -145 35 0 35 0 0 145 0 145 50 0 c49 0 50 1 50 30 0 29 -1
30 -50 30 l-50 0 0 80 0 80 -35 0 -34 0 -3 -77z"/>
<path d="M5630 5720 l0 -80 -30 0 c-27 0 -30 -3 -30 -30 0 -27 3 -30 30 -30
l30 0 0 -145 0 -145 40 0 40 0 0 145 0 145 50 0 c49 0 50 1 50 30 0 29 -1 30
-50 30 l-50 0 0 80 0 80 -40 0 -40 0 0 -80z"/>
<path d="M4007 5646 c-114 -31 -168 -151 -118 -262 41 -91 165 -127 264 -77
26 13 27 15 12 43 -14 28 -16 28 -42 14 -46 -23 -98 -18 -134 14 l-32 29 141
49 c158 55 155 51 106 126 -40 63 -113 86 -197 64z m104 -69 c19 -12 34 -29
34 -37 0 -15 -152 -79 -189 -79 -16 -1 -17 4 -12 31 9 46 33 77 69 93 44 20
59 18 98 -8z"/>
<path d="M6075 5641 c-23 -10 -52 -32 -67 -49 l-26 -31 -6 40 c-6 35 -9 39
-36 39 l-30 0 0 -175 0 -175 35 0 35 0 0 91 c0 64 5 101 17 126 18 39 65 73
101 73 19 0 22 5 22 40 0 22 -1 40 -2 40 -2 0 -21 -9 -43 -19z"/>
<path d="M7027 5646 c-114 -31 -168 -151 -118 -262 41 -91 165 -127 264 -77
26 13 27 15 12 43 -14 28 -16 28 -42 14 -46 -23 -98 -18 -134 14 l-32 29 141
49 c158 55 155 51 106 126 -40 63 -113 86 -197 64z m104 -69 c19 -12 34 -29
34 -37 0 -15 -152 -79 -189 -79 -16 -1 -17 4 -12 31 9 46 33 77 69 93 44 20
59 18 98 -8z"/>
<path d="M8152 5650 c-19 -4 -49 -23 -68 -41 l-34 -33 0 32 c0 30 -2 32 -35
32 l-35 0 0 -175 0 -175 35 0 35 0 0 83 c0 45 5 100 10 122 17 76 103 122 143
77 14 -15 17 -42 17 -150 l0 -132 40 0 40 0 0 101 c0 118 16 162 66 186 41 20
77 11 92 -22 7 -15 12 -75 12 -145 l0 -120 35 0 35 0 0 149 c0 134 -2 151 -20
174 -42 53 -127 53 -191 0 -25 -22 -32 -24 -40 -12 -5 8 -9 16 -9 19 -1 23
-81 41 -128 30z"/>
<path d="M8792 5648 c-57 -13 -116 -69 -132 -127 -38 -142 87 -266 234 -232
102 24 164 128 136 229 -27 102 -124 155 -238 130z m116 -74 c29 -20 52 -66
52 -104 0 -69 -49 -120 -115 -120 -66 0 -115 51 -115 120 0 69 49 120 115 120
22 0 51 -7 63 -16z"/>
<path d="M9795 5654 c-11 -3 -30 -7 -42 -10 -29 -6 -90 -59 -109 -95 -17 -33
-19 -116 -3 -156 17 -46 60 -83 116 -99 55 -16 90 -13 151 12 l33 14 -17 29
c-17 28 -19 29 -45 15 -16 -8 -43 -14 -61 -14 -34 0 -98 32 -98 49 0 7 151 65
248 95 28 9 28 29 -3 81 -32 55 -110 91 -170 79z m60 -68 c18 -8 38 -24 45
-35 12 -24 22 -18 -124 -72 l-79 -29 6 41 c7 56 56 106 105 108 7 1 28 -5 47
-13z"/>
<path d="M11015 5651 c-110 -27 -173 -126 -146 -229 14 -49 51 -96 95 -119 40
-21 131 -21 179 0 l38 16 -17 26 c-13 20 -22 25 -38 19 -12 -3 -42 -9 -67 -11
-39 -4 -50 -1 -75 21 -37 32 -36 33 124 87 78 27 122 47 122 56 0 46 -67 116
-128 133 -41 11 -44 11 -87 1z m107 -88 c15 -15 25 -29 22 -32 -3 -3 -49 -22
-102 -42 l-97 -36 -3 28 c-7 64 58 125 123 114 16 -3 42 -17 57 -32z"/>
<path d="M4371 5634 c-13 -9 -29 -31 -37 -49 -25 -61 8 -114 88 -141 74 -24
96 -55 62 -88 -22 -23 -86 -20 -117 4 l-26 20 -15 -21 c-8 -12 -13 -26 -10
-31 13 -20 73 -41 119 -41 88 0 134 39 135 111 0 52 -27 82 -92 101 -47 14
-78 37 -78 57 0 39 76 59 115 30 17 -12 21 -12 33 6 24 33 -5 52 -86 56 -51 3
-73 -1 -91 -14z"/>
<path d="M6576 5631 c-16 -11 -34 -28 -40 -38 -9 -16 -11 -15 -16 12 -4 25
-10 31 -38 33 l-32 3 0 -175 0 -176 35 0 35 0 0 95 c0 59 5 108 14 129 28 68
105 97 146 56 18 -18 20 -33 20 -150 l0 -130 40 0 40 0 0 136 c0 150 -11 192
-56 213 -39 18 -115 13 -148 -8z"/>
<path d="M7391 5634 c-13 -9 -29 -31 -37 -49 -25 -61 8 -114 88 -141 74 -24
96 -55 62 -88 -22 -23 -86 -20 -117 4 l-26 20 -15 -21 c-8 -12 -13 -26 -10
-31 13 -20 73 -41 119 -41 88 0 134 39 135 111 0 52 -27 82 -92 101 -47 14
-78 37 -78 57 0 39 76 59 115 30 17 -12 21 -12 33 6 24 33 -5 52 -86 56 -51 3
-73 -1 -91 -14z"/>
<path d="M10244 5631 c-17 -10 -40 -31 -52 -46 l-22 -28 0 42 c0 40 -1 41 -35
41 l-35 0 0 -175 0 -175 35 0 35 0 0 87 c0 106 22 162 74 187 19 9 41 16 50
16 12 0 16 10 16 35 0 41 -18 46 -66 16z"/>
<path d="M10565 5638 c-11 -6 -32 -22 -47 -36 l-28 -26 0 32 c0 30 -2 32 -35
32 l-35 0 0 -175 0 -175 40 0 40 0 0 105 c0 113 11 150 52 179 32 23 81 20
104 -5 16 -18 19 -40 22 -150 l4 -129 34 0 34 0 0 151 0 151 -29 29 c-25 25
-37 29 -83 29 -29 0 -62 -6 -73 -12z"/>
<path d="M11371 5636 c-48 -26 -66 -100 -36 -143 8 -12 41 -31 72 -43 32 -12
63 -26 70 -32 16 -13 17 -50 1 -66 -18 -18 -79 -14 -114 7 l-32 19 -13 -24
c-11 -21 -10 -26 7 -39 29 -21 98 -33 145 -25 53 10 89 46 96 97 7 52 -22 86
-102 116 -46 18 -61 28 -63 46 -7 48 37 62 115 36 16 -5 24 -2 32 14 10 18 7
22 -18 36 -36 18 -127 19 -160 1z"/>
<path d="M3370 5465 l0 -175 40 0 40 0 0 175 0 175 -40 0 -40 0 0 -175z"/>
<path d="M4921 5618 c60 -116 182 -338 184 -336 1 2 43 83 93 181 l91 177 -42
0 -43 0 -49 -112 -49 -112 -54 112 -55 112 -44 0 c-42 0 -43 -1 -32 -22z"/>
<path d="M5380 5465 l0 -175 40 0 40 0 0 175 0 175 -40 0 -40 0 0 -175z"/>
<path d="M6230 5465 l0 -175 35 0 35 0 0 175 0 175 -35 0 -35 0 0 -175z"/>
<path d="M2326 5595 c-42 -22 -55 -44 -56 -92 0 -81 79 -134 149 -99 33 17 61
62 61 96 0 34 -28 78 -60 95 -37 19 -57 19 -94 0z"/>
<path d="M13310 4640 l0 -330 35 0 35 0 0 330 0 330 -35 0 -35 0 0 -330z"/>
<path d="M2998 4921 c-74 -24 -118 -83 -118 -159 0 -66 32 -101 147 -157 119
-59 130 -67 138 -106 23 -102 -101 -154 -228 -96 l-54 25 -18 -30 c-20 -35
-19 -37 63 -68 75 -28 175 -27 233 3 60 31 92 92 86 163 -5 79 -32 107 -156
167 -114 56 -140 82 -127 131 8 34 60 66 106 66 19 -1 59 -9 88 -19 l53 -18
15 29 15 29 -45 20 c-51 22 -157 33 -198 20z"/>
<path d="M14263 4785 c-32 -54 -32 -55 -10 -55 14 0 43 21 77 55 l54 55 -44 0
c-44 0 -46 -2 -77 -55z"/>
<path d="M3382 4818 c-28 -28 -3 -72 39 -66 30 4 47 33 33 56 -14 21 -55 27
-72 10z"/>
<path d="M13530 4810 c-15 -27 4 -60 33 -60 29 0 47 18 47 46 0 37 -62 48 -80
14z"/>
<path d="M3628 4743 l-3 -78 -32 -3 c-29 -3 -33 -7 -33 -33 0 -27 3 -29 35
-29 l35 0 0 -145 0 -145 35 0 35 0 0 145 0 145 50 0 c49 0 50 1 50 30 0 29 -1
30 -50 30 l-50 0 0 80 0 80 -35 0 -34 0 -3 -77z"/>
<path d="M4007 4666 c-114 -31 -168 -151 -118 -262 41 -91 165 -127 264 -77
26 13 27 15 12 43 -14 28 -16 28 -42 14 -46 -23 -98 -18 -134 14 l-32 29 141
49 c158 55 155 51 106 126 -40 63 -113 86 -197 64z m104 -69 c19 -12 34 -29
34 -37 0 -15 -152 -79 -189 -79 -16 -1 -17 4 -12 31 9 46 33 77 69 93 44 20
59 18 98 -8z"/>
<path d="M5067 4666 c-114 -31 -168 -151 -118 -262 41 -91 165 -127 264 -77
26 13 27 15 12 43 -14 28 -16 28 -42 14 -46 -23 -98 -18 -134 14 l-32 29 141
49 c158 55 155 51 106 126 -40 63 -113 86 -197 64z m104 -69 c19 -12 34 -29
34 -37 0 -15 -152 -79 -189 -79 -16 -1 -17 4 -12 31 9 46 33 77 69 93 44 20
59 18 98 -8z"/>
<path d="M6162 4668 c-57 -13 -116 -69 -132 -127 -38 -142 87 -266 234 -232
102 24 164 128 136 229 -27 102 -124 155 -238 130z m116 -74 c29 -20 52 -66
52 -104 0 -69 -49 -120 -115 -120 -66 0 -115 51 -115 120 0 69 49 120 115 120
22 0 51 -7 63 -16z"/>
<path d="M6692 4670 c-19 -4 -49 -23 -68 -41 l-34 -33 0 32 c0 30 -2 32 -35
32 l-35 0 0 -175 0 -175 35 0 35 0 0 83 c0 45 5 100 10 122 17 76 103 122 143
77 14 -15 17 -42 17 -150 l0 -132 40 0 40 0 0 101 c0 118 16 162 66 186 41 20
77 11 92 -22 7 -15 12 -75 12 -145 l0 -120 35 0 35 0 0 149 c0 134 -2 151 -20
174 -42 53 -127 53 -191 0 -25 -22 -32 -24 -40 -12 -5 8 -9 16 -9 19 -1 23
-81 41 -128 30z"/>
<path d="M7392 4670 c-19 -4 -49 -23 -68 -41 l-34 -33 0 32 c0 30 -2 32 -35
32 l-35 0 0 -175 0 -175 40 0 40 0 0 105 c0 113 11 150 52 179 30 21 71 20 91
-2 14 -15 17 -42 17 -150 l0 -132 40 0 40 0 0 95 c0 107 13 150 55 183 35 27
69 28 95 2 18 -18 20 -33 20 -150 l0 -130 35 0 35 0 0 145 c0 84 -5 154 -11
168 -28 62 -131 68 -198 12 l-29 -25 -16 25 c-13 19 -75 48 -96 44 -3 -1 -20
-5 -38 -9z"/>
<path d="M8065 4674 c-11 -3 -30 -7 -42 -10 -29 -6 -90 -59 -109 -95 -17 -33
-19 -116 -3 -156 17 -46 60 -83 116 -99 55 -16 90 -13 151 12 l33 14 -17 29
c-17 28 -19 29 -45 15 -16 -8 -43 -14 -61 -14 -34 0 -98 32 -98 49 0 7 151 65
248 95 28 9 28 29 -3 81 -32 55 -110 91 -170 79z m60 -68 c18 -8 38 -24 45
-35 12 -24 22 -18 -124 -72 l-79 -29 6 41 c7 56 56 106 105 108 7 1 28 -5 47
-13z"/>
<path d="M9205 4674 c-11 -3 -30 -7 -42 -10 -29 -6 -90 -59 -109 -95 -17 -33
-19 -116 -3 -156 17 -46 60 -83 116 -99 55 -16 90 -13 151 12 l33 14 -17 29
c-17 28 -19 29 -45 15 -16 -8 -43 -14 -61 -14 -34 0 -98 32 -98 49 0 7 151 65
248 95 28 9 28 29 -3 81 -32 55 -110 91 -170 79z m60 -68 c18 -8 38 -24 45
-35 12 -24 22 -18 -124 -72 l-79 -29 6 41 c7 56 56 106 105 108 7 1 28 -5 47
-13z"/>
<path d="M9950 4668 c-19 -5 -49 -21 -67 -34 l-32 -24 -3 27 c-2 23 -8 29 -35
31 l-33 3 0 -265 0 -266 35 0 35 0 0 110 c0 61 4 110 8 110 5 0 17 -9 27 -20
57 -63 197 -41 258 42 22 29 33 108 23 162 -17 89 -123 150 -216 124z m99 -83
c35 -30 55 -83 46 -125 -8 -35 -62 -86 -103 -95 -65 -14 -142 50 -142 118 0
41 26 90 58 109 42 26 104 23 141 -7z"/>
<path d="M10425 4674 c-11 -3 -30 -7 -42 -10 -29 -6 -90 -59 -109 -95 -17 -33
-19 -116 -3 -156 17 -46 60 -83 116 -99 55 -16 90 -13 151 12 l33 14 -17 29
c-17 28 -19 29 -45 15 -16 -8 -43 -14 -61 -14 -34 0 -98 32 -98 49 0 7 151 65
248 95 28 9 28 29 -3 81 -32 55 -110 91 -170 79z m60 -68 c18 -8 38 -24 45
-35 12 -24 22 -18 -124 -72 l-79 -29 6 41 c7 56 56 106 105 108 7 1 28 -5 47
-13z"/>
<path d="M11535 4673 c-11 -2 -30 -6 -42 -9 -33 -6 -94 -63 -109 -101 -19 -45
-17 -110 5 -159 60 -132 275 -134 341 -4 28 54 26 133 -3 185 -33 59 -127 102
-192 88z m98 -91 c53 -56 53 -139 0 -188 -31 -29 -100 -33 -138 -8 -36 24 -58
87 -45 134 23 86 127 121 183 62z"/>
<path d="M12911 4670 c-132 -32 -178 -228 -75 -323 57 -53 155 -56 224 -7 l30
21 0 -25 c0 -24 4 -26 40 -26 l40 0 0 175 0 175 -34 0 c-28 0 -35 -4 -40 -26
l-7 -25 -35 30 c-19 17 -42 31 -52 31 -9 0 -26 2 -37 4 -11 3 -35 1 -54 -4z
m129 -77 c41 -28 49 -45 50 -105 0 -50 -4 -60 -31 -87 -26 -26 -38 -31 -79
-31 -120 0 -170 144 -75 218 34 27 100 29 135 5z"/>
<path d="M14215 4671 c-110 -27 -173 -126 -146 -229 14 -49 51 -96 95 -119 40
-21 131 -21 179 0 l38 16 -17 26 c-13 20 -22 25 -38 19 -12 -3 -42 -9 -67 -11
-39 -4 -50 -1 -75 21 -37 32 -36 33 124 87 78 27 122 47 122 56 0 46 -67 116
-128 133 -41 11 -44 11 -87 1z m107 -88 c15 -15 25 -29 22 -32 -3 -3 -49 -22
-102 -42 l-97 -36 -3 28 c-7 64 58 125 123 114 16 -3 42 -17 57 -32z"/>
<path d="M4371 4654 c-13 -9 -29 -31 -37 -49 -25 -61 8 -114 88 -141 74 -24
96 -55 62 -88 -22 -23 -86 -20 -117 4 l-26 20 -15 -21 c-8 -12 -13 -26 -10
-31 13 -20 73 -41 119 -41 88 0 134 39 135 111 0 52 -27 82 -92 101 -47 14
-78 37 -78 57 0 39 76 59 115 30 17 -12 21 -12 33 6 24 33 -5 52 -86 56 -51 3
-73 -1 -91 -14z"/>
<path d="M5732 4649 c-77 -38 -113 -121 -92 -208 24 -101 126 -157 234 -130
59 15 75 33 51 59 -13 15 -22 17 -36 10 -27 -15 -102 -12 -127 6 -12 8 -29 28
-37 44 -56 108 50 219 156 164 17 -8 32 -14 33 -12 0 2 10 13 20 25 l19 23
-44 20 c-58 26 -123 25 -177 -1z"/>
<path d="M8515 4650 c-16 -11 -40 -32 -52 -47 l-23 -28 0 43 c0 41 0 42 -35
42 l-35 0 0 -175 0 -175 40 0 40 0 0 105 c0 102 1 105 31 139 19 22 43 38 64
42 29 5 34 10 37 40 3 29 1 34 -17 34 -11 0 -33 -9 -50 -20z"/>
<path d="M8755 4655 c-73 -34 -105 -86 -105 -171 0 -69 23 -113 77 -150 56
-38 148 -39 216 -2 18 9 18 11 -3 33 -18 19 -27 22 -41 15 -31 -17 -99 -11
-129 10 -34 24 -54 79 -46 124 14 72 101 115 167 82 32 -16 34 -16 51 6 21 28
10 44 -41 58 -50 14 -110 12 -146 -5z"/>
<path d="M10874 4651 c-17 -10 -40 -31 -52 -46 l-22 -28 0 42 c0 40 -1 41 -35
41 l-35 0 0 -175 0 -175 35 0 35 0 0 87 c0 106 22 162 74 187 19 9 41 16 50
16 12 0 16 10 16 35 0 41 -18 46 -66 16z"/>
<path d="M11081 4654 c-13 -9 -29 -31 -37 -49 -25 -61 8 -114 88 -141 74 -24
96 -55 62 -88 -22 -23 -86 -20 -117 4 l-26 20 -15 -21 c-8 -12 -13 -26 -10
-31 13 -20 73 -41 119 -41 88 0 134 39 135 111 0 52 -27 82 -92 101 -47 14
-78 37 -78 57 0 39 76 59 115 30 17 -12 21 -12 33 6 24 33 -5 52 -86 56 -51 3
-73 -1 -91 -14z"/>
<path d="M11992 4650 c-18 -11 -35 -27 -38 -35 -9 -21 -24 -8 -24 21 0 21 -5
24 -35 24 l-35 0 0 -175 0 -175 40 0 40 0 0 101 c0 73 5 111 16 135 18 37 58
64 96 64 56 -1 68 -33 68 -179 l0 -121 35 0 35 0 0 151 0 151 -29 29 c-25 25
-37 29 -83 29 -35 0 -64 -7 -86 -20z"/>
<path d="M12466 4651 c-16 -11 -34 -28 -40 -38 -9 -16 -11 -15 -16 12 -4 25
-10 31 -38 33 l-32 3 0 -175 0 -176 35 0 35 0 0 95 c0 59 5 108 14 129 28 68
105 97 146 56 18 -18 20 -33 20 -150 l0 -130 40 0 40 0 0 136 c0 150 -11 192
-56 213 -39 18 -115 13 -148 -8z"/>
<path d="M13781 4656 c-48 -26 -66 -100 -36 -143 8 -12 41 -31 72 -43 32 -12
63 -26 70 -32 16 -13 17 -50 1 -66 -18 -18 -79 -14 -114 7 l-32 19 -13 -24
c-11 -21 -10 -26 7 -39 29 -21 98 -33 145 -25 53 10 89 46 96 97 7 52 -22 86
-102 116 -46 18 -61 28 -63 46 -7 48 37 62 115 36 16 -5 24 -2 32 14 10 18 7
22 -18 36 -36 18 -127 19 -160 1z"/>
<path d="M14560 4643 c-19 -18 -33 -41 -36 -64 -5 -30 -2 -41 22 -67 16 -17
51 -39 78 -49 62 -23 82 -50 60 -81 -19 -27 -73 -30 -114 -5 -24 14 -31 14
-44 4 -22 -18 -20 -28 9 -47 98 -64 235 -14 235 85 0 46 -34 81 -97 101 -46
15 -73 37 -73 60 0 40 56 53 109 25 27 -13 29 -13 39 10 10 22 8 26 -18 40
-16 8 -54 15 -84 15 -47 0 -61 -4 -86 -27z"/>
<path d="M3370 4485 l0 -175 40 0 40 0 0 175 0 175 -40 0 -40 0 0 -175z"/>
<path d="M13530 4485 l0 -175 35 0 35 0 0 175 0 175 -35 0 -35 0 0 -175z"/>
<path d="M2322 4617 c-61 -34 -73 -113 -24 -167 49 -55 143 -39 172 29 38 93
-61 186 -148 138z"/>
<path d="M5380 4495 l0 -35 81 0 80 0 -3 33 -3 32 -77 3 -78 3 0 -36z"/>
<path d="M4490 3660 l0 -330 35 0 35 0 0 330 0 330 -35 0 -35 0 0 -330z"/>
<path d="M8910 3660 l0 -330 35 0 c31 0 35 3 35 25 l0 25 41 -27 c68 -45 179
-33 231 24 43 47 61 147 37 210 -37 98 -162 136 -263 80 l-46 -26 0 175 0 174
-35 0 -35 0 0 -330z m234 -34 c51 -21 76 -60 76 -118 0 -43 -4 -54 -34 -84
-28 -28 -42 -34 -75 -34 -82 0 -131 49 -131 128 0 46 29 88 74 108 40 17 49
17 90 0z"/>
<path d="M2972 3657 c-73 -172 -132 -317 -132 -321 0 -4 16 -6 37 -4 35 3 37
6 67 78 l32 75 123 0 124 0 30 -77 30 -78 44 0 c23 0 43 3 43 6 0 6 -260 627
-264 632 -2 1 -62 -139 -134 -311z m171 31 c20 -51 39 -101 43 -110 6 -16 -2
-18 -86 -18 -83 0 -92 2 -86 18 25 69 82 202 87 202 3 0 22 -42 42 -92z"/>
<path d="M4712 3838 c-28 -28 -3 -72 39 -66 30 4 47 33 33 56 -14 21 -55 27
-72 10z"/>
<path d="M6127 3843 c-13 -13 -7 -61 9 -67 47 -18 85 14 64 54 -10 20 -58 28
-73 13z"/>
<path d="M5850 3760 l0 -80 -35 0 c-32 0 -35 -2 -35 -30 0 -28 3 -30 35 -30
l35 0 0 -145 0 -145 35 0 35 0 0 145 0 145 50 0 c49 0 50 1 50 29 0 28 -2 30
-47 33 l-48 3 -3 78 -3 77 -34 0 -35 0 0 -80z"/>
<path d="M3655 3691 c-38 -9 -68 -25 -84 -45 -17 -20 -31 -11 -31 20 0 21 -5
24 -35 24 l-35 0 0 -265 0 -265 40 0 40 0 0 111 0 110 26 -20 c80 -63 212 -40
265 46 36 57 34 154 -3 211 -41 61 -113 90 -183 73z m75 -76 c63 -33 79 -138
30 -190 -28 -30 -82 -49 -112 -40 -71 20 -98 56 -98 128 0 93 94 146 180 102z"/>
<path d="M4165 3691 c-36 -9 -73 -28 -97 -49 -17 -14 -18 -13 -18 16 0 30 -2
32 -35 32 l-35 0 0 -265 0 -265 40 0 40 0 0 111 0 110 26 -20 c100 -78 251
-25 285 101 35 131 -81 259 -206 229z m76 -78 c32 -19 59 -68 59 -108 0 -80
-87 -141 -166 -115 -52 17 -74 53 -74 117 0 49 4 59 34 89 28 28 42 34 76 34
23 0 55 -8 71 -17z"/>
<path d="M5412 3688 c-136 -30 -179 -238 -67 -326 61 -48 138 -51 208 -6 l37
24 0 -25 c0 -23 4 -25 40 -25 l40 0 0 175 0 175 -35 0 c-31 0 -35 -3 -35 -25
0 -27 -15 -34 -23 -11 -14 36 -100 59 -165 44z m128 -73 c40 -20 50 -43 50
-110 0 -49 -4 -60 -29 -86 -25 -24 -38 -29 -78 -29 -78 0 -123 47 -123 131 0
33 6 47 34 75 28 28 42 34 75 34 23 0 55 -7 71 -15z"/>
<path d="M6475 3693 c-11 -2 -30 -6 -42 -9 -33 -6 -94 -63 -109 -101 -19 -45
-17 -110 5 -159 60 -132 275 -134 341 -4 28 54 26 133 -3 185 -33 59 -127 102
-192 88z m98 -91 c53 -56 53 -139 0 -188 -31 -29 -100 -33 -138 -8 -36 24 -58
87 -45 134 23 86 127 121 183 62z"/>
<path d="M8576 3689 c-123 -29 -183 -175 -117 -283 44 -71 172 -104 249 -63
36 20 37 24 17 51 -13 17 -18 18 -40 8 -47 -22 -101 -15 -136 16 l-32 28 139
49 c77 26 141 49 143 51 6 5 -20 63 -41 90 -38 47 -112 69 -182 53z m111 -81
c13 -12 23 -26 23 -32 0 -6 -45 -27 -100 -47 l-100 -36 0 36 c0 92 111 141
177 79z"/>
<path d="M10665 3681 c-23 -10 -52 -32 -67 -49 l-26 -31 -6 40 c-6 35 -9 39
-36 39 l-30 0 0 -175 0 -175 35 0 35 0 0 91 c0 64 5 101 17 126 18 39 65 73
101 73 19 0 22 5 22 40 0 22 -1 40 -2 40 -2 0 -21 -9 -43 -19z"/>
<path d="M11245 3685 c-22 -8 -50 -26 -62 -41 l-21 -27 -4 29 c-2 25 -8 29
-35 32 l-33 3 0 -175 0 -176 35 0 35 0 0 95 c0 107 13 150 55 183 35 27 69 28
95 2 18 -18 20 -33 20 -150 l0 -130 40 0 40 0 0 105 c0 113 11 150 52 179 30
21 71 20 91 -2 14 -15 17 -42 17 -150 l0 -132 40 0 40 0 0 143 c0 123 -3 146
-20 174 -37 61 -132 64 -192 7 l-28 -27 -20 26 c-12 14 -38 31 -58 37 -44 12
-38 12 -87 -5z"/>
<path d="M11906 3689 c-123 -29 -183 -175 -117 -283 44 -71 172 -104 249 -63
36 20 37 24 17 51 -13 17 -18 18 -40 8 -47 -22 -101 -15 -136 16 l-32 28 139
49 c77 26 141 49 143 51 6 5 -20 63 -41 90 -38 47 -112 69 -182 53z m111 -81
c13 -12 23 -26 23 -32 0 -6 -45 -27 -100 -47 l-100 -36 0 36 c0 92 111 141
177 79z"/>
<path d="M13495 3694 c-11 -3 -30 -7 -42 -10 -29 -6 -90 -59 -109 -95 -17 -33
-19 -116 -3 -156 17 -46 60 -83 116 -99 55 -16 90 -13 151 12 l33 14 -17 29
c-17 28 -19 29 -45 15 -16 -8 -43 -14 -61 -14 -34 0 -98 32 -98 49 0 7 151 65
248 95 28 9 28 29 -3 81 -32 55 -110 91 -170 79z m60 -68 c18 -8 38 -24 45
-35 12 -24 22 -18 -124 -72 l-79 -29 6 41 c7 56 56 106 105 108 7 1 28 -5 47
-13z"/>
<path d="M4995 3671 c-48 -22 -69 -44 -90 -94 -31 -74 -7 -173 53 -215 63 -46
170 -50 225 -10 16 12 16 15 2 36 -13 17 -20 20 -35 12 -10 -5 -40 -10 -65
-10 -40 0 -52 5 -81 34 -30 30 -34 40 -34 86 0 43 4 56 29 80 38 39 75 47 128
28 39 -14 44 -14 58 2 23 26 18 36 -25 54 -53 21 -115 20 -165 -3z"/>
<path d="M6932 3670 c-18 -11 -35 -27 -38 -35 -9 -21 -24 -8 -24 21 0 21 -5
24 -35 24 l-35 0 0 -175 0 -175 40 0 40 0 0 101 c0 73 5 111 16 135 18 37 58
64 96 64 56 -1 68 -33 68 -179 l0 -121 35 0 35 0 0 151 0 151 -29 29 c-25 25
-37 29 -83 29 -35 0 -64 -7 -86 -20z"/>
<path d="M7311 3676 c-48 -26 -66 -100 -36 -143 8 -12 41 -31 72 -43 32 -12
63 -26 70 -32 16 -13 17 -50 1 -66 -18 -18 -79 -14 -114 7 l-32 19 -13 -24
c-11 -21 -10 -26 7 -39 29 -21 98 -33 145 -25 53 10 89 46 96 97 7 52 -22 86
-102 116 -46 18 -61 28 -63 46 -7 48 37 62 115 36 16 -5 24 -2 32 14 10 18 7
22 -18 36 -36 18 -127 19 -160 1z"/>
<path d="M9711 3674 c-13 -9 -29 -31 -37 -49 -25 -61 8 -114 88 -141 74 -24
96 -55 62 -88 -22 -23 -86 -20 -117 4 l-26 20 -15 -21 c-8 -12 -13 -26 -10
-31 13 -20 73 -41 119 -41 88 0 134 39 135 111 0 52 -27 82 -92 101 -47 14
-78 37 -78 57 0 39 76 59 115 30 17 -12 21 -12 33 6 24 33 -5 52 -86 56 -51 3
-73 -1 -91 -14z"/>
<path d="M12271 3676 c-48 -26 -66 -100 -36 -143 8 -12 41 -31 72 -43 32 -12
63 -26 70 -32 16 -13 17 -50 1 -66 -18 -18 -79 -14 -114 7 l-32 19 -13 -24
c-11 -21 -10 -26 7 -39 29 -21 98 -33 145 -25 53 10 89 46 96 97 7 52 -22 86
-102 116 -46 18 -61 28 -63 46 -7 48 37 62 115 36 16 -5 24 -2 32 14 10 18 7
22 -18 36 -36 18 -127 19 -160 1z"/>
<path d="M13195 3670 c-16 -11 -40 -32 -52 -47 l-23 -28 0 43 c0 41 0 42 -35
42 l-35 0 0 -175 0 -175 40 0 40 0 0 105 c0 102 1 105 31 139 19 22 43 38 64
42 29 5 34 10 37 40 3 29 1 34 -17 34 -11 0 -33 -9 -50 -20z"/>
<path d="M4700 3505 l0 -175 40 0 40 0 0 175 0 175 -40 0 -40 0 0 -175z"/>
<path d="M6120 3505 l0 -175 40 0 40 0 0 175 0 175 -40 0 -40 0 0 -175z"/>
<path d="M7917 3508 c42 -95 79 -176 82 -180 4 -5 29 44 56 107 26 64 51 112
55 108 3 -4 29 -56 56 -114 27 -59 52 -105 55 -103 4 2 29 57 57 121 28 65 62
144 76 176 l26 57 -39 0 c-34 0 -40 -4 -49 -27 -29 -84 -75 -183 -82 -176 -4
4 -27 52 -50 106 -39 91 -44 97 -71 97 -31 0 -35 -10 -19 -40 7 -13 2 -37 -22
-94 -18 -42 -35 -73 -39 -69 -4 5 -26 52 -49 106 l-43 97 -37 0 -38 0 75 -172z"/>
<path d="M10030 3540 c0 -86 5 -149 12 -165 32 -71 151 -73 213 -5 l20 22 5
-28 c4 -24 11 -30 38 -32 l32 -3 0 175 0 176 -35 0 -35 0 0 -87 c0 -49 -5
-104 -10 -124 -20 -71 -94 -108 -140 -71 -24 19 -25 26 -28 151 l-4 131 -34 0
-34 0 0 -140z"/>
<path d="M12580 3550 c0 -142 10 -185 51 -214 45 -31 154 -10 182 36 17 26 27
22 27 -12 0 -28 3 -30 35 -30 l35 0 0 175 0 175 -40 0 -40 0 0 -101 c0 -114
-13 -155 -59 -182 -38 -22 -53 -21 -85 4 -26 20 -26 22 -26 150 l0 129 -40 0
-40 0 0 -130z"/>
<path d="M2299 3621 c-63 -64 -22 -181 65 -181 47 0 79 16 99 50 28 46 22 87
-17 126 -46 46 -104 48 -147 5z"/>
<path d="M3959 2997 c-45 -30 -58 -71 -58 -189 l-1 -98 -30 0 c-28 0 -30 -3
-30 -35 0 -32 2 -35 30 -35 l30 0 0 -140 0 -140 40 0 40 0 0 140 0 140 55 0
55 0 0 35 0 35 -55 0 -55 0 0 105 c0 93 2 107 21 126 13 13 30 19 51 17 22 -2
34 3 45 19 14 21 14 23 -12 33 -43 16 -90 12 -126 -13z"/>
<path d="M12640 2845 l0 -176 -28 21 c-59 43 -163 45 -221 3 -14 -11 -36 -39
-48 -63 -55 -107 -2 -241 106 -270 51 -14 91 -6 149 26 l42 25 0 -26 c0 -23 4
-25 40 -25 l40 0 0 330 0 330 -40 0 -40 0 0 -175z m-76 -189 c91 -38 105 -166
24 -216 -61 -37 -143 -18 -173 40 -35 67 -9 146 59 176 40 17 49 17 90 0z"/>
<path d="M14470 2690 l0 -330 40 0 40 0 0 330 0 330 -40 0 -40 0 0 -330z"/>
<path d="M2900 2672 l0 -312 35 0 34 0 3 113 3 112 59 0 59 0 71 -112 71 -113
43 0 c23 0 42 3 42 6 0 3 -31 57 -70 118 -38 62 -70 116 -70 120 0 4 14 19 31
34 42 35 59 79 59 149 0 77 -29 129 -90 160 -37 19 -68 25 -163 30 l-117 6 0
-311z m261 190 c45 -51 39 -131 -15 -174 -16 -13 -40 -18 -98 -18 l-78 0 0
108 c0 60 3 112 8 116 4 4 40 6 81 4 68 -3 75 -6 102 -36z"/>
<path d="M12850 2937 c0 -18 -7 -42 -15 -54 -13 -19 -13 -22 1 -27 9 -3 20 -6
25 -6 15 0 49 63 49 93 0 23 -4 27 -30 27 -27 0 -30 -3 -30 -33z"/>
<path d="M8673 2838 c-30 -50 -31 -53 -11 -56 22 -4 46 15 90 71 l30 37 -39 0
c-35 0 -40 -4 -70 -52z"/>
<path d="M7512 2868 c-28 -28 -3 -72 39 -66 30 4 47 33 33 56 -14 21 -55 27
-72 10z"/>
<path d="M10580 2860 c-15 -27 4 -60 33 -60 29 0 47 18 47 46 0 37 -62 48 -80
14z"/>
<path d="M14262 2868 c-28 -28 -3 -72 39 -66 30 4 47 33 33 56 -14 21 -55 27
-72 10z"/>
<path d="M16147 2873 c-13 -13 -7 -61 9 -67 47 -18 85 14 64 54 -10 20 -58 28
-73 13z"/>
<path d="M5150 2790 l0 -80 -35 0 c-32 0 -35 -2 -35 -30 0 -28 3 -30 35 -30
l35 0 0 -145 0 -145 35 0 35 0 0 145 0 145 50 0 c49 0 50 1 50 29 0 28 -2 30
-47 33 l-48 3 -3 78 -3 77 -34 0 -35 0 0 -80z"/>
<path d="M6960 2790 l0 -80 -30 0 c-27 0 -30 -3 -30 -30 0 -27 3 -30 30 -30
l30 0 0 -145 0 -145 40 0 40 0 0 145 0 145 50 0 c49 0 50 1 50 30 0 29 -1 30
-50 30 l-50 0 0 80 0 80 -40 0 -40 0 0 -80z"/>
<path d="M8230 2790 l0 -80 -35 0 c-32 0 -35 -2 -35 -30 0 -28 3 -30 35 -30
l35 0 0 -145 0 -145 35 0 35 0 0 145 0 145 50 0 c49 0 50 1 50 29 0 28 -2 30
-47 33 l-48 3 -3 78 -3 77 -34 0 -35 0 0 -80z"/>
<path d="M10308 2793 l-3 -78 -32 -3 c-29 -3 -33 -7 -33 -33 0 -27 3 -29 35
-29 l35 0 0 -145 0 -145 35 0 35 0 0 145 0 145 50 0 c49 0 50 1 50 30 0 29 -1
30 -50 30 l-50 0 0 80 0 80 -35 0 -34 0 -3 -77z"/>
<path d="M13980 2790 l0 -80 -30 0 c-27 0 -30 -3 -30 -30 0 -27 3 -30 30 -30
l30 0 0 -145 0 -145 40 0 40 0 0 145 0 145 50 0 c49 0 50 1 50 30 0 29 -1 30
-50 30 l-50 0 0 80 0 80 -40 0 -40 0 0 -80z"/>
<path d="M16740 2790 l0 -80 -30 0 c-27 0 -30 -3 -30 -30 0 -27 3 -30 30 -30
l30 0 0 -145 0 -145 40 0 40 0 0 145 0 145 45 0 c43 0 45 1 45 30 0 29 -2 30
-45 30 l-45 0 0 80 0 80 -40 0 -40 0 0 -80z"/>
<path d="M18020 2790 l0 -80 -30 0 c-27 0 -30 -3 -30 -30 0 -27 3 -30 30 -30
l30 0 0 -145 0 -145 40 0 40 0 0 145 0 145 50 0 c49 0 50 1 50 30 0 29 -1 30
-50 30 l-50 0 0 80 0 80 -40 0 -40 0 0 -80z"/>
<path d="M3537 2716 c-114 -31 -168 -151 -118 -262 41 -91 165 -127 264 -77
26 13 27 15 12 43 -14 28 -16 28 -42 14 -46 -23 -98 -18 -134 14 l-32 29 141
49 c158 55 155 51 106 126 -40 63 -113 86 -197 64z m104 -69 c19 -12 34 -29
34 -37 0 -15 -152 -79 -189 -79 -16 -1 -17 4 -12 31 9 46 33 77 69 93 44 20
59 18 98 -8z"/>
<path d="M4293 2721 c-89 -22 -143 -89 -143 -179 0 -67 19 -113 61 -145 70
-53 156 -57 236 -11 113 65 109 248 -7 312 -42 24 -104 33 -147 23z m123 -95
c30 -30 34 -40 34 -86 0 -46 -4 -56 -34 -86 -84 -84 -214 -8 -192 111 4 19 20
48 37 65 25 25 39 30 76 30 38 0 50 -5 79 -34z"/>
<path d="M5536 2719 c-123 -29 -183 -175 -117 -283 44 -71 172 -104 249 -63
36 20 37 24 17 51 -13 17 -18 18 -40 8 -47 -22 -101 -15 -136 16 l-32 28 139
49 c77 26 141 49 143 51 6 5 -20 63 -41 90 -38 47 -112 69 -182 53z m111 -81
c13 -12 23 -26 23 -32 0 -6 -45 -27 -100 -47 l-100 -36 0 36 c0 92 111 141
177 79z"/>
<path d="M6605 2721 c-110 -27 -173 -126 -146 -229 14 -49 51 -96 95 -119 40
-21 131 -21 179 0 l38 16 -17 26 c-13 20 -22 25 -38 19 -12 -3 -42 -9 -67 -11
-39 -4 -50 -1 -75 21 -37 32 -36 33 124 87 78 27 122 47 122 56 0 46 -67 116
-128 133 -41 11 -44 11 -87 1z m107 -88 c15 -15 25 -29 22 -32 -3 -3 -49 -22
-102 -42 l-97 -36 -3 28 c-7 64 58 125 123 114 16 -3 42 -17 57 -32z"/>
<path d="M8616 2719 c-123 -29 -183 -175 -117 -283 44 -71 172 -104 249 -63
36 20 37 24 17 51 -13 17 -18 18 -40 8 -47 -22 -101 -15 -136 16 l-32 28 139
49 c77 26 141 49 143 51 6 5 -20 63 -41 90 -38 47 -112 69 -182 53z m111 -81
c13 -12 23 -26 23 -32 0 -6 -45 -27 -100 -47 l-100 -36 0 36 c0 92 111 141
177 79z"/>
<path d="M9050 2718 c-89 -25 -134 -94 -128 -193 3 -49 10 -70 31 -99 64 -83
177 -96 257 -30 l30 26 0 -44 c0 -25 -8 -56 -20 -75 -34 -57 -135 -69 -193
-23 -31 25 -39 25 -62 0 -22 -25 -11 -40 49 -69 87 -43 220 -18 269 50 29 40
36 96 37 282 l0 167 -36 0 c-27 0 -37 -5 -41 -20 -5 -19 -6 -19 -32 -1 -25 18
-95 42 -116 40 -5 0 -26 -5 -45 -11z m156 -92 c30 -30 34 -40 34 -86 0 -46 -4
-56 -34 -86 -30 -30 -40 -34 -85 -34 -44 0 -56 5 -86 33 -45 40 -55 89 -30
141 22 46 56 65 119 66 42 0 52 -4 82 -34z"/>
<path d="M9872 2718 c-136 -30 -179 -238 -67 -326 61 -48 138 -51 208 -6 l37
24 0 -25 c0 -23 4 -25 40 -25 l40 0 0 175 0 175 -35 0 c-31 0 -35 -3 -35 -25
0 -27 -15 -34 -23 -11 -14 36 -100 59 -165 44z m128 -73 c40 -20 50 -43 50
-110 0 -49 -4 -60 -29 -86 -25 -24 -38 -29 -78 -29 -78 0 -123 47 -123 131 0
33 6 47 34 75 28 28 42 34 75 34 23 0 55 -7 71 -15z"/>
<path d="M10913 2721 c-89 -22 -143 -89 -143 -179 0 -67 19 -113 61 -145 70
-53 156 -57 236 -11 113 65 109 248 -7 312 -42 24 -104 33 -147 23z m123 -95
c30 -30 34 -40 34 -86 0 -46 -4 -56 -34 -86 -84 -84 -214 -8 -192 111 4 19 20
48 37 65 25 25 39 30 76 30 38 0 50 -5 79 -34z"/>
<path d="M13133 2721 c-89 -22 -143 -89 -143 -179 0 -67 19 -113 61 -145 70
-53 156 -57 236 -11 113 65 109 248 -7 312 -42 24 -104 33 -147 23z m123 -95
c30 -30 34 -40 34 -86 0 -46 -4 -56 -34 -86 -84 -84 -214 -8 -192 111 4 19 20
48 37 65 25 25 39 30 76 30 38 0 50 -5 79 -34z"/>
<path d="M15417 2716 c-114 -31 -168 -151 -118 -262 41 -91 165 -127 264 -77
26 13 27 15 12 43 -14 28 -16 28 -42 14 -46 -23 -98 -18 -134 14 l-32 29 141
49 c158 55 155 51 106 126 -40 63 -113 86 -197 64z m104 -69 c19 -12 34 -29
34 -37 0 -15 -152 -79 -189 -79 -16 -1 -17 4 -12 31 9 46 33 77 69 93 44 20
59 18 98 -8z"/>
<path d="M17125 2721 c-120 -29 -178 -167 -119 -283 43 -84 164 -110 250 -52
43 30 44 30 44 -1 0 -22 4 -25 35 -25 l35 0 0 175 0 175 -35 0 c-31 0 -35 -3
-35 -26 l0 -26 -30 26 c-26 21 -92 48 -110 45 -3 -1 -18 -4 -35 -8z m137 -90
c31 -27 33 -34 33 -91 0 -57 -2 -64 -33 -91 -57 -51 -153 -35 -188 32 -28 54
-10 129 38 163 13 9 43 16 70 16 39 0 54 -6 80 -29z"/>
<path d="M4785 2708 c-11 -6 -32 -22 -47 -36 l-28 -26 0 32 c0 30 -2 32 -35
32 l-35 0 0 -175 0 -175 40 0 40 0 0 105 c0 113 11 150 52 179 32 23 81 20
104 -5 16 -18 19 -40 22 -150 l4 -129 34 0 34 0 0 151 0 151 -29 29 c-25 25
-37 29 -83 29 -29 0 -62 -6 -73 -12z"/>
<path d="M5901 2706 c-48 -26 -66 -100 -36 -143 8 -12 41 -31 72 -43 32 -12
63 -26 70 -32 16 -13 17 -50 1 -66 -18 -18 -79 -14 -114 7 l-32 19 -13 -24
c-11 -21 -10 -26 7 -39 29 -21 98 -33 145 -25 53 10 89 46 96 97 7 52 -22 86
-102 116 -46 18 -61 28 -63 46 -7 48 37 62 115 36 16 -5 24 -2 32 14 10 18 7
22 -18 36 -36 18 -127 19 -160 1z"/>
<path d="M7852 2700 c-18 -11 -35 -27 -38 -35 -9 -21 -24 -8 -24 21 0 21 -5
24 -35 24 l-35 0 0 -175 0 -175 40 0 40 0 0 101 c0 73 5 111 16 135 18 37 58
64 96 64 56 -1 68 -33 68 -179 l0 -121 35 0 35 0 0 151 0 151 -29 29 c-25 25
-37 29 -83 29 -35 0 -64 -7 -86 -20z"/>
<path d="M9604 2701 c-17 -10 -40 -31 -52 -46 l-22 -28 0 42 c0 40 -1 41 -35
41 l-35 0 0 -175 0 -175 35 0 35 0 0 87 c0 106 22 162 74 187 19 9 41 16 50
16 12 0 16 10 16 35 0 41 -18 46 -66 16z"/>
<path d="M11405 2708 c-11 -6 -32 -22 -47 -36 l-28 -26 0 32 c0 30 -2 32 -35
32 l-35 0 0 -175 0 -175 40 0 40 0 0 105 c0 113 11 150 52 179 32 23 81 20
104 -5 16 -18 19 -40 22 -150 l4 -129 34 0 34 0 0 151 0 151 -29 29 c-25 25
-37 29 -83 29 -29 0 -62 -6 -73 -12z"/>
<path d="M11749 2691 c-23 -23 -29 -38 -29 -71 0 -51 36 -90 102 -109 55 -16
68 -28 68 -57 0 -45 -71 -59 -127 -25 l-31 20 -16 -24 c-15 -23 -15 -25 6 -39
54 -35 165 -38 204 -5 26 21 46 78 39 109 -8 37 -29 54 -98 80 -31 12 -62 31
-68 42 -24 45 58 78 108 43 19 -14 22 -13 37 10 17 25 16 26 -18 40 -20 8 -61
15 -91 15 -49 0 -60 -4 -86 -29z"/>
<path d="M14721 2704 c-13 -9 -29 -31 -37 -49 -25 -61 8 -114 88 -141 74 -24
96 -55 62 -88 -22 -23 -86 -20 -117 4 l-26 20 -15 -21 c-8 -12 -13 -26 -10
-31 13 -20 73 -41 119 -41 88 0 134 39 135 111 0 52 -27 82 -92 101 -47 14
-78 37 -78 57 0 39 76 59 115 30 17 -12 21 -12 33 6 24 33 -5 52 -86 56 -51 3
-73 -1 -91 -14z"/>
<path d="M16380 2693 c-19 -18 -33 -41 -36 -64 -5 -30 -2 -41 22 -67 16 -17
51 -39 78 -49 62 -23 82 -50 60 -81 -19 -27 -73 -30 -114 -5 -24 14 -31 14
-44 4 -22 -18 -20 -28 9 -47 98 -64 235 -14 235 85 0 46 -34 81 -97 101 -46
15 -73 37 -73 60 0 40 56 53 109 25 27 -13 29 -13 39 10 10 22 8 26 -18 40
-16 8 -54 15 -84 15 -47 0 -61 -4 -86 -27z"/>
<path d="M17646 2701 c-16 -11 -34 -28 -40 -38 -9 -16 -11 -15 -16 12 -4 25
-10 31 -38 33 l-32 3 0 -175 0 -176 35 0 35 0 0 95 c0 59 5 108 14 129 28 68
105 97 146 56 18 -18 20 -33 20 -150 l0 -130 40 0 40 0 0 136 c0 150 -11 192
-56 213 -39 18 -115 13 -148 -8z"/>
<path d="M18331 2706 c-48 -26 -66 -100 -36 -143 8 -12 41 -31 72 -43 32 -12
63 -26 70 -32 16 -13 17 -50 1 -66 -18 -18 -79 -14 -114 7 l-32 19 -13 -24
c-11 -21 -10 -26 7 -39 29 -21 98 -33 145 -25 53 10 89 46 96 97 7 52 -22 86
-102 116 -46 18 -61 28 -63 46 -7 48 37 62 115 36 16 -5 24 -2 32 14 10 18 7
22 -18 36 -36 18 -127 19 -160 1z"/>
<path d="M7500 2535 l0 -175 40 0 40 0 0 175 0 175 -40 0 -40 0 0 -175z"/>
<path d="M10580 2535 l0 -175 35 0 35 0 0 175 0 175 -35 0 -35 0 0 -175z"/>
<path d="M13482 2559 l3 -151 33 -29 c25 -22 42 -29 75 -29 43 0 100 27 124
59 10 14 13 12 19 -16 6 -29 10 -33 40 -33 l34 0 0 175 0 175 -40 0 -40 0 0
-95 c0 -139 -32 -199 -107 -199 -56 0 -63 18 -63 166 l0 128 -41 0 -40 0 3
-151z"/>
<path d="M14260 2535 l0 -175 35 0 35 0 0 175 0 175 -35 0 -35 0 0 -175z"/>
<path d="M15700 2705 c0 -3 25 -37 56 -77 31 -40 58 -78 61 -85 2 -6 -20 -44
-49 -85 -77 -103 -75 -98 -31 -98 35 0 41 5 78 60 22 33 43 60 47 60 4 0 28
-27 53 -60 44 -58 48 -60 92 -60 l45 0 -24 33 c-92 122 -108 145 -108 151 0 4
25 41 55 81 30 41 55 77 55 80 0 3 -16 5 -35 5 -33 0 -39 -5 -74 -61 l-39 -62
-48 62 c-45 58 -49 61 -91 61 -23 0 -43 -2 -43 -5z"/>
<path d="M16140 2535 l0 -175 40 0 40 0 0 175 0 175 -40 0 -40 0 0 -175z"/>
<path d="M2344 2669 c-85 -23 -105 -144 -31 -189 44 -28 89 -25 126 6 48 40
51 126 6 164 -22 19 -69 27 -101 19z"/>
</g>
</svg>
