<svg width="73" height="50" viewBox="0 0 73 50" fill="none" xmlns="http://www.w3.org/2000/svg">
<rect x="2.51562" y="2.93985" width="67.67" height="43.5666" transform="rotate(-0.359101 2.51562 2.93985)" fill="#C33C54"/>
<rect x="2.51562" y="2.93985" width="67.67" height="43.5666" transform="rotate(-0.359101 2.51562 2.93985)" stroke="#433E3C" stroke-width="5"/>
<path d="M29.1574 27.498C29.1507 27.6855 29.0942 28.014 28.9877 28.4834C28.8813 28.9528 28.7935 29.2698 28.7242 29.4343L26.7203 29.4469C26.676 29.8612 26.6251 30.467 26.5676 31.2643C26.5683 31.3658 26.4442 31.5189 26.1955 31.7236C25.9468 31.9283 25.7326 32.0312 25.5529 32.0324L20.3616 32.0649C21.4186 27.441 22.1529 22.4402 22.5645 17.0625C22.5638 16.9609 22.6879 16.8078 22.9366 16.6031C23.1931 16.3984 23.4073 16.2955 23.5792 16.2944L28.7705 16.2619C28.0097 19.5245 27.3848 23.2746 26.8957 27.5121L29.1574 27.498ZM19.7829 29.4903L15.2244 29.5189C15.0184 29.0593 14.8348 28.4354 14.6736 27.6473C15.3954 26.8772 16.5463 25.3934 18.1263 23.1959C19.714 20.9906 20.8712 19.2646 21.5978 18.0178C20.456 21.5719 18.9447 24.7572 17.0638 27.5738L20.4739 27.5524C20.4752 27.7477 20.3603 28.1156 20.1293 28.6561C19.9061 29.1966 19.7907 29.4747 19.7829 29.4903ZM34.0637 17.5295C34.006 18.2877 33.8394 19.1364 33.564 20.0757L31.3492 20.0895C31.4387 19.4015 31.5681 18.8616 31.7375 18.4699C32.6108 18.191 33.3862 17.8775 34.0637 17.5295ZM32.2676 31.9903C33.8581 25.2302 34.9166 20.2273 35.4431 16.9818C35.4425 16.8802 35.5665 16.7271 35.8153 16.5224C36.0718 16.3177 36.286 16.2148 36.4579 16.2137L40.6765 16.1873C39.5965 20.8738 38.8622 25.8746 38.4736 31.1896C38.4743 31.2912 38.3502 31.4443 38.1015 31.649C37.8528 31.8537 37.6386 31.9566 37.4589 31.9577L32.2676 31.9903ZM51.3038 15.8863C49.8259 16.9268 49.0903 17.9861 49.0971 19.0642C49.1016 19.783 49.4101 20.3904 50.0226 20.8866C50.5251 21.2897 51.2192 21.7072 52.1047 22.1392C52.4617 21.7541 52.6976 21.3737 52.8124 20.998C52.935 20.6222 52.9947 20.1726 52.9914 19.6492C52.9834 18.3602 52.5674 17.437 51.7436 16.8796C51.7429 16.7703 51.8669 16.6132 52.1157 16.4085C52.3643 16.196 52.5824 16.0892 52.7699 16.088C53.7312 16.1445 54.6003 16.4437 55.3771 16.9858C56.2246 17.5664 56.6514 18.3606 56.6577 19.3684C56.6625 20.1262 56.3661 20.8351 55.7687 21.4951C55.1712 22.1473 54.3809 22.582 53.3979 22.7991C54.6834 23.4707 55.5705 24.1488 56.0592 24.8332C56.5163 25.4788 56.7473 26.1844 56.7521 26.95C56.7569 27.7156 56.6205 28.3923 56.343 28.9799C56.0653 29.5598 55.6934 30.0426 55.227 30.4284C54.7685 30.8141 54.2315 31.1417 53.616 31.4111C52.4706 31.9027 51.1831 32.153 49.7534 32.1619C49.394 32.1642 49.0736 32.1428 48.792 32.0976C49.6258 31.7408 50.2909 31.2914 50.7875 30.7492C51.2841 30.1992 51.5303 29.5961 51.5262 28.9398C51.522 28.268 51.1313 27.6415 50.3543 27.0604C50.0167 26.8047 49.6911 26.5919 49.3776 26.422C49.0718 26.252 48.7739 26.0859 48.4838 25.9237C48.2015 25.7614 47.9781 25.6339 47.8134 25.5411C47.3104 26.3099 47.0627 27.292 47.0702 28.4873C47.0776 29.6747 47.4932 30.5472 48.3171 31.1045C48.3102 31.2608 48.1824 31.4335 47.9336 31.6225C47.6847 31.8038 47.4743 31.895 47.3025 31.896C46.177 31.825 45.1868 31.5187 44.3318 30.9771C43.3827 30.3815 42.9045 29.49 42.897 28.3025C42.8917 27.4509 43.2033 26.6833 43.8318 25.9997C44.4604 25.3161 45.3287 24.8731 46.4369 24.6709C45.7696 24.1672 45.2428 23.6236 44.8563 23.0401C44.4698 22.4488 44.2741 21.7625 44.2692 20.9812C44.2643 20.2 44.4316 19.4802 44.7713 18.8218C45.1187 18.1634 45.5802 17.6214 46.1556 17.1959C47.3688 16.2977 48.7683 15.8436 50.3542 15.8336C50.6198 15.832 50.9363 15.8495 51.3038 15.8863Z" fill="#F5F5F3"/>
</svg>
